<?xml version="1.0" encoding="UTF-8" standalone="no"?>
<!DOCTYPE svg PUBLIC "-//W3C//DTD SVG 1.1//EN" "http://www.w3.org/Graphics/SVG/1.1/DTD/svg11.dtd">
<svg width="100%" height="100%" viewBox="0 0 402 402" version="1.1" xmlns="http://www.w3.org/2000/svg" xmlns:xlink="http://www.w3.org/1999/xlink" xml:space="preserve" xmlns:serif="http://www.serif.com/" style="fill-rule:evenodd;clip-rule:evenodd;stroke-linejoin:round;stroke-miterlimit:2;">
    <g transform="matrix(1,0,0,1,-16,0)">
        <rect x="16" y="0" width="402" height="402" style="fill:rgb(0,0,255);"/>
    </g>
    <g id="a" transform="matrix(2.43325,0,0,2.52548,-2334.78,-2225.46)">
        <path d="M1023.53,942.53L985.543,938.526C986.975,931.886 989.042,926.661 991.744,922.853C994.446,919.044 998.336,915.74 1003.41,912.94C1007.06,910.922 1012.07,909.36 1018.45,908.253C1024.83,907.146 1031.73,906.593 1039.16,906.593C1051.07,906.593 1060.64,907.26 1067.87,908.595C1075.09,909.929 1081.12,912.713 1085.93,916.944C1089.32,919.874 1091.99,924.024 1093.94,929.395C1095.89,934.767 1096.87,939.894 1096.87,944.776L1096.87,990.577C1096.87,995.46 1097.18,999.285 1097.8,1002.05C1098.42,1004.82 1099.77,1008.35 1101.85,1012.65L1064.55,1012.65C1063.05,1009.98 1062.07,1007.94 1061.62,1006.54C1061.16,1005.14 1060.7,1002.95 1060.25,999.952C1055.04,1004.97 1049.87,1008.55 1044.72,1010.69C1037.69,1013.56 1029.52,1014.99 1020.21,1014.99C1007.84,1014.99 998.45,1012.13 992.037,1006.4C985.624,1000.67 982.418,993.604 982.418,985.206C982.418,977.328 984.729,970.851 989.351,965.772C993.974,960.694 1002.5,956.918 1014.94,954.444C1029.85,951.45 1039.51,949.35 1043.94,948.145C1048.37,946.941 1053.06,945.362 1058,943.409C1058,938.526 1056.99,935.108 1054.98,933.155C1052.96,931.202 1049.41,930.226 1044.33,930.226C1037.82,930.226 1032.94,931.267 1029.68,933.351C1027.14,934.978 1025.09,938.038 1023.53,942.53ZM1058,963.429C1052.54,965.382 1046.84,967.107 1040.91,968.604C1032.84,970.753 1027.73,972.869 1025.58,974.952C1023.37,977.101 1022.26,979.542 1022.26,982.276C1022.26,985.401 1023.35,987.957 1025.53,989.942C1027.71,991.928 1030.92,992.921 1035.15,992.921C1039.58,992.921 1043.7,991.847 1047.51,989.698C1051.31,987.55 1054.02,984.929 1055.61,981.837C1057.21,978.744 1058,974.724 1058,969.776L1058,963.429Z" style="fill:white;fill-rule:nonzero;"/>
    </g>
</svg>
