<?xml version="1.0" encoding="UTF-8" standalone="no"?>
<!DOCTYPE svg PUBLIC "-//W3C//DTD SVG 1.1//EN" "http://www.w3.org/Graphics/SVG/1.1/DTD/svg11.dtd">
<svg width="100%" height="100%" viewBox="0 0 211 57" version="1.1" xmlns="http://www.w3.org/2000/svg" xmlns:xlink="http://www.w3.org/1999/xlink" xml:space="preserve" xmlns:serif="http://www.serif.com/" style="fill-rule:evenodd;clip-rule:evenodd;stroke-linejoin:round;stroke-miterlimit:2;">
    <g transform="matrix(0.217175,0,0,0.217175,0,3.55271e-15)">
        <g transform="matrix(0.05,0,0,-0.05,-31,287.78)">
            <path d="M2980,5747C1969,5624 1510,4835 2122,4273C2263,4144 2277,4136 3478,3488C4187,3106 4280,3037 4385,2823L4449,2690L4457,2245L4464,1800L4852,1800C5257,1800 5332,1816 5107,1855C4869,1895 4890,1769 4890,3180L4890,4399L4942,4451C4983,4492 5020,4506 5118,4514C5392,4539 5234,4560 4741,4564C4455,4566 4189,4568 4150,4569C4032,4571 4071,4531 4201,4518C4447,4494 4455,4474 4457,3870L4459,3430L4418,3480C4395,3508 4348,3565 4314,3607C4221,3719 3980,3871 3550,4087C2723,4503 2565,4633 2487,4957C2313,5677 3378,5921 4018,5309L4180,5155L4180,5674L3985,5710C3797,5746 3163,5769 2980,5747Z" style="fill:rgb(98,84,79);"/>
        </g>
        <g transform="matrix(0.05,0,0,-0.05,-31,287.78)">
            <path d="M620,4541C620,4530 652,4517 690,4511C1000,4463 970,4609 970,3164L970,1957L914,1908C883,1882 832,1860 801,1860C703,1860 620,1836 620,1807C620,1771 1782,1776 1794,1812C1799,1826 1757,1838 1684,1845C1418,1869 1415,1876 1404,2455C1397,2889 1409,3008 1449,2883C1496,2735 1732,2573 2375,2247C3226,1815 3387,1660 3389,1270C3391,884 3186,730 2670,730C2274,730 2089,808 1811,1094L1680,1230L1690,692L1760,676C2932,418 3961,797 3995,1500C4018,1951 3915,2044 2612,2752C1391,3416 1400,3406 1400,4203L1400,4560L1010,4560C776,4560 620,4552 620,4541Z" style="fill:rgb(98,84,79);"/>
        </g>
    </g>
    <g transform="matrix(0.666667,0,0,0.721311,4.33333,-2.63584)">
        <rect x="91" y="12" width="3" height="61" style="fill:rgb(98,84,79);"/>
    </g>
    <g transform="matrix(1,0,0,1,-21,-12.2302)">
        <g transform="matrix(0.16829,0,0,0.16829,102.284,14.8143)">
            <path d="M83.672,75.776C90.234,79.604 95.43,84.423 99.258,90.234C103.086,96.045 105,102.368 105,109.204C105,109.887 104.966,110.605 104.897,111.357C104.351,118.398 101.907,124.773 97.566,130.481C93.225,136.189 87.5,140.82 80.391,144.375C76.357,146.357 71.982,147.895 67.266,148.989C62.549,150.151 57.627,150.732 52.5,150.732C47.373,150.732 42.451,150.151 37.734,148.989C33.018,147.895 28.643,146.357 24.609,144.375C22.354,143.281 20.234,142.05 18.252,140.683C15.996,139.316 13.809,139.196 11.689,140.324C9.57,141.452 8.442,143.349 8.306,146.015L6.665,146.015L6.665,116.484L8.306,116.484L8.306,118.637C8.306,122.807 9.246,126.704 11.125,130.327C13.005,133.95 15.654,136.958 19.072,139.35C28.848,145.776 39.99,148.989 52.5,148.989C60.225,148.989 66.804,146.186 72.239,140.581C77.673,134.975 80.391,128.242 80.391,120.381C80.391,114.502 78.853,109.221 75.776,104.538C72.7,99.856 68.667,96.352 63.677,94.028C63.267,93.891 62.891,93.72 62.549,93.515L29.839,79.878L29.839,79.775C28.608,79.297 27.412,78.818 26.25,78.34C26.182,78.34 26.147,78.305 26.147,78.237C25.737,78.1 25.361,77.929 25.02,77.724C24.951,77.724 24.883,77.69 24.814,77.622C24.746,77.622 24.678,77.588 24.609,77.519C23.516,76.972 22.422,76.391 21.328,75.776C14.766,71.948 9.57,67.111 5.742,61.267C1.914,55.422 0,49.082 0,42.246L0,40.092L0.103,40.195C0.581,33.086 3.008,26.66 7.383,20.918C11.758,15.175 17.5,10.527 24.609,6.972C28.643,4.922 33.018,3.349 37.734,2.256C42.451,1.093 47.373,0.512 52.5,0.512C57.627,0.512 62.549,1.093 67.266,2.256C71.982,3.349 76.357,4.922 80.391,6.972C83.398,8.476 86.201,10.185 88.799,12.099C90.645,13.33 92.49,13.484 94.336,12.561C96.182,11.638 97.104,10.083 97.104,7.895L97.104,7.793L98.745,7.793L98.745,35.376L97.104,35.376L97.104,32.299C97.104,24.712 93.892,18.286 87.466,13.022C82.202,9.194 76.46,6.391 70.239,4.614C64.019,2.837 58.105,2.05 52.5,2.256C44.639,2.666 38.025,5.571 32.659,10.971C27.292,16.372 24.609,23.071 24.609,31.069C24.609,37.016 26.165,42.348 29.275,47.065C32.385,51.782 36.436,55.268 41.426,57.524L41.528,57.524L42.451,57.934L76.494,72.29C76.836,72.426 77.178,72.563 77.52,72.7C78.545,73.11 79.502,73.554 80.391,74.033C81.553,74.58 82.646,75.161 83.672,75.776Z" style="fill:rgb(98,84,79);"/>
        </g>
        <g transform="matrix(0.16829,0,0,0.16829,102.284,14.8143)">
            <path d="M238.664,3.691L226.462,3.691L226.462,147.553L238.664,147.553L238.664,149.194L189.651,149.194L189.651,147.553L201.853,147.553L201.853,76.494L161.35,76.494C158.684,76.494 156.291,77.314 154.172,78.955C153.762,79.228 153.386,79.57 153.044,79.98C152.839,80.185 152.634,80.39 152.429,80.595C151.062,82.168 150.173,84.048 149.763,86.235L149.763,87.568C149.763,88.388 149.729,88.32 149.66,87.363C149.592,87.636 149.558,87.91 149.558,88.183L149.558,125.815C149.558,131.831 147.439,136.958 143.2,141.196C138.962,145.434 133.835,147.553 127.82,147.553L162.273,147.553L162.273,149.194L113.259,149.194L113.259,147.553C116.472,147.553 119.223,146.408 121.513,144.118C123.803,141.828 124.948,139.077 124.948,135.864C124.948,135.864 124.966,134.018 125,130.327C125.034,126.635 125.068,122.329 125.102,117.407C125.136,112.485 125.171,107.888 125.205,103.615C125.239,99.343 125.256,96.591 125.256,95.361L125.359,61.113L125.359,3.794L113.156,3.794L113.156,2.153L160.837,2.153L160.837,3.794L159.504,3.794C158.342,3.794 157.026,3.811 155.556,3.845C154.087,3.879 152.788,3.896 151.66,3.896L149.968,3.896C149.968,10.254 149.951,20.883 149.917,35.786C149.883,50.688 149.831,63.711 149.763,74.853L201.853,74.853L201.853,3.691L189.651,3.691L189.651,2.05L238.664,2.05L238.664,3.691Z" style="fill:rgb(98,84,79);"/>
        </g>
        <g transform="matrix(0.16829,0,0,0.16829,102.284,14.8143)">
            <path d="M357.563,17.329C365.151,24.37 371.149,32.915 375.559,42.964C379.968,53.012 382.172,63.881 382.172,75.571C382.172,87.329 379.968,98.232 375.559,108.281C371.149,118.33 365.151,126.875 357.563,133.916C349.223,141.572 339.619,146.767 328.749,149.502C324.169,150.595 319.418,151.142 314.497,151.142C309.575,151.142 304.824,150.595 300.244,149.502C289.306,146.767 279.702,141.572 271.43,133.916C263.842,126.875 257.844,118.33 253.435,108.281C249.025,98.232 246.821,87.329 246.821,75.571C246.821,63.881 249.025,53.012 253.435,42.964C257.844,32.915 263.842,24.37 271.43,17.329C279.702,9.604 289.306,4.409 300.244,1.743C304.824,0.581 309.575,-0 314.497,-0C319.418,-0 324.169,0.581 328.749,1.743C339.619,4.409 349.223,9.604 357.563,17.329ZM357.563,102.231L357.563,49.013C357.358,40.195 355.324,32.231 351.462,25.122C347.6,18.012 342.438,12.339 335.978,8.1C329.518,3.862 322.358,1.743 314.497,1.743C306.567,1.743 299.338,3.896 292.81,8.203C286.281,12.509 281.086,18.303 277.224,25.583C273.361,32.863 271.43,40.947 271.43,49.834L271.43,102.641C271.704,111.391 273.771,119.287 277.634,126.328C281.496,133.369 286.657,138.991 293.117,143.195C299.577,147.4 306.704,149.502 314.497,149.502C322.358,149.502 329.518,147.382 335.978,143.144C342.438,138.906 347.6,133.232 351.462,126.123C355.324,119.013 357.358,111.049 357.563,102.231Z" style="fill:rgb(98,84,79);"/>
        </g>
        <g transform="matrix(0.16829,0,0,0.16829,102.284,14.8143)">
            <path d="M515.837,3.691L503.634,3.691L503.634,147.553L515.837,147.553L515.837,149.194L466.823,149.194L466.823,147.553L479.025,147.553L479.025,76.494L438.522,76.494C435.856,76.494 433.464,77.314 431.344,78.955C430.934,79.228 430.558,79.57 430.216,79.98C430.011,80.185 429.806,80.39 429.601,80.595C428.234,82.168 427.345,84.048 426.935,86.235L426.935,87.568C426.935,88.388 426.901,88.32 426.833,87.363C426.764,87.636 426.73,87.91 426.73,88.183L426.73,125.815C426.73,131.831 424.611,136.958 420.373,141.196C416.134,145.434 411.007,147.553 404.992,147.553L439.445,147.553L439.445,149.194L390.431,149.194L390.431,147.553C393.644,147.553 396.396,146.408 398.686,144.118C400.976,141.828 402.121,139.077 402.121,135.864C402.121,135.864 402.138,134.018 402.172,130.327C402.206,126.635 402.24,122.329 402.275,117.407C402.309,112.485 402.343,107.888 402.377,103.615C402.411,99.343 402.428,96.591 402.428,95.361L402.531,61.113L402.531,3.794L390.329,3.794L390.329,2.153L438.009,2.153L438.009,3.794L436.676,3.794C435.514,3.794 434.198,3.811 432.729,3.845C431.259,3.879 429.96,3.896 428.832,3.896L427.14,3.896C427.14,10.254 427.123,20.883 427.089,35.786C427.055,50.688 427.004,63.711 426.935,74.853L479.025,74.853L479.025,3.691L466.823,3.691L466.823,2.05L515.837,2.05L515.837,3.691Z" style="fill:rgb(98,84,79);"/>
        </g>
        <g transform="matrix(0.16829,0,0,0.16829,102.284,14.8143)">
            <path d="M656.371,147.861C656.986,147.861 657.533,147.946 658.012,148.117C658.49,148.288 658.866,148.647 659.14,149.194L647.142,149.194C641.4,149.194 636.581,148.391 632.684,146.784C628.788,145.178 625.746,143.315 623.558,141.196C619.73,137.573 616.449,133.54 613.715,129.096C610.98,124.653 608.417,120.107 606.024,115.459C603.495,110.332 600.692,105.376 597.616,100.59C594.54,95.805 590.78,91.533 586.337,87.773C583.261,85.244 579.723,83.723 575.724,83.21C571.725,82.697 568.222,84.116 565.214,87.465C562.069,91.704 560.599,95.737 560.805,99.565L560.805,125.302C560.805,131.455 558.617,136.718 554.242,141.093C549.867,145.468 544.603,147.656 538.451,147.656L573.007,147.656L573.007,149.297L523.993,149.297L523.993,147.656C527.343,147.656 530.214,146.46 532.606,144.067C534.999,141.674 536.195,138.803 536.195,135.454L536.195,3.794L523.993,3.794L523.993,2.153L593.822,2.153C597.377,2.153 600.795,2.7 604.076,3.794L604.179,3.794C612.04,6.596 617.953,10.954 621.918,16.867C625.883,22.78 627.865,29.223 627.865,36.196C627.865,43.169 625.9,49.629 621.969,55.576C618.038,61.523 612.142,65.932 604.281,68.803C602.846,69.282 601.342,69.658 599.769,69.931C597.855,70.273 595.873,70.444 593.822,70.444L594.642,70.444C585.892,70.444 578.407,73.452 572.186,79.467C574.852,77.485 577.724,75.947 580.8,74.853C589.003,72.324 596.146,72.444 602.23,75.212C608.314,77.981 613.356,82.287 617.355,88.132C621.354,93.977 624.345,100.283 626.327,107.05C628.993,116.006 631.522,123.2 633.915,128.635C636.308,134.069 638.683,138.171 641.041,140.94C643.4,143.708 645.827,145.554 648.322,146.477C650.817,147.4 653.5,147.861 656.371,147.861ZM565.932,83.466C568.598,80.117 571.64,77.212 575.058,74.751C577.382,73.247 579.843,71.948 582.44,70.854C583.671,70.239 584.867,69.658 586.029,69.111C590.609,66.787 594.403,63.574 597.411,59.472C599.462,56.533 601.068,53.388 602.23,50.039C603.324,46.621 603.905,43.169 603.974,39.682C604.11,36.128 603.734,32.641 602.846,29.223C602.025,25.874 600.726,22.695 598.949,19.687C597.172,16.611 594.95,13.911 592.284,11.587C589.55,9.262 586.508,7.417 583.158,6.049C581.381,5.366 579.535,4.853 577.621,4.511C576.664,4.306 575.673,4.135 574.647,3.999L574.545,3.999C573.588,3.862 572.597,3.794 571.571,3.794L560.805,3.794L560.805,92.49C562.035,89.209 563.744,86.201 565.932,83.466Z" style="fill:rgb(98,84,79);"/>
        </g>
        <g transform="matrix(0.16829,0,0,0.16829,102.284,14.8143)">
            <path d="M766.656,113.921L768.297,113.921L768.297,149.194L703.492,149.194L667.296,149.297L667.296,147.656C670.646,147.656 673.517,146.46 675.909,144.067C678.302,141.674 679.498,138.803 679.498,135.454L679.498,3.794L667.296,3.794L667.296,2.153L768.092,2.153L768.092,2.256L768.194,2.256L768.194,37.529L766.554,37.529C766.554,28.232 763.273,20.285 756.71,13.689C750.148,7.092 742.218,3.794 732.921,3.794L704.108,3.794L704.108,63.779L704.108,63.061C704.108,66.274 705.235,69.043 707.491,71.367C709.816,73.623 712.584,74.751 715.797,74.751L723.59,74.751C729.195,74.751 733.981,72.785 737.945,68.855C741.91,64.924 743.893,60.156 743.893,54.55L743.893,49.218L745.533,49.218L745.533,102.026L743.893,102.026L743.893,96.694C743.893,91.089 741.91,86.303 737.945,82.339C733.981,78.374 729.195,76.391 723.59,76.391L704.005,76.391L704.005,84.799C704.005,89.721 703.988,94.712 703.954,99.77C703.92,104.829 703.885,108.93 703.851,112.075C703.817,115.219 703.8,116.176 703.8,114.946L703.8,100.796C703.8,98.95 703.8,99.069 703.8,101.154L703.8,125.713C703.595,131.933 701.39,137.129 697.186,141.298C692.982,145.468 687.838,147.553 681.754,147.553L733.024,147.553C742.32,147.553 750.25,144.272 756.813,137.71C763.375,131.147 766.656,123.217 766.656,113.921Z" style="fill:rgb(98,84,79);"/>
        </g>
        <g transform="matrix(0.16829,0,0,0.16829,102.284,14.8143)">
            <path d="M147.622,253.816L168.762,253.816C171.085,253.816 172.86,253.289 174.088,252.234C175.316,251.18 175.929,249.665 175.929,247.69C175.929,245.608 175.336,244.046 174.148,243.005C172.96,241.964 171.165,241.444 168.762,241.444L147.622,241.444L147.622,253.816ZM147.622,275.477L170.764,275.477C173.274,275.477 175.249,274.736 176.69,273.255C178.132,271.773 178.852,269.751 178.852,267.189C178.852,264.653 178.132,262.638 176.69,261.143C175.249,259.648 173.274,258.901 170.764,258.901L147.622,258.901L147.622,275.477ZM142.136,280.562L142.136,236.359L168.282,236.359C172.633,236.359 175.923,237.286 178.152,239.141C180.38,240.997 181.495,243.739 181.495,247.37C181.495,249.131 181.148,250.706 180.454,252.094C179.76,253.482 178.772,254.603 177.491,255.457C179.84,256.819 181.615,258.487 182.816,260.462C184.017,262.438 184.618,264.706 184.618,267.269C184.618,271.353 183.277,274.589 180.594,276.978C177.911,279.367 174.275,280.562 169.683,280.562L142.136,280.562Z" style="fill:rgb(98,84,79);"/>
        </g>
        <g transform="matrix(0.16829,0,0,0.16829,102.284,14.8143)">
            <path d="M251.853,280.562L251.853,236.359L286.607,236.359L286.607,241.444L257.338,241.444L257.338,254.416L275.035,254.416L275.035,259.501L257.338,259.501L257.338,275.477L288.408,275.477L288.408,280.562L251.853,280.562Z" style="fill:rgb(98,84,79);"/>
        </g>
        <g transform="matrix(0.16829,0,0,0.16829,102.284,14.8143)">
            <path d="M360.408,263.505L379.867,263.505L370.097,243.926L360.408,263.505ZM346.154,280.562L367.815,236.359L372.38,236.359L394.281,280.562L388.315,280.562L382.309,268.67L357.885,268.67L352.04,280.562L346.154,280.562Z" style="fill:rgb(98,84,79);"/>
        </g>
        <g transform="matrix(0.16829,0,0,0.16829,102.284,14.8143)">
            <path d="M460.029,236.359L460.029,264.987C460.029,269.578 460.89,272.654 462.611,274.216C464.333,275.777 467.716,276.558 472.761,276.558C477.806,276.558 481.183,275.777 482.891,274.216C484.599,272.654 485.454,269.578 485.454,264.987L485.454,236.359L490.979,236.359L490.979,266.468C490.979,271.913 489.564,275.817 486.735,278.18C483.905,280.542 479.247,281.723 472.761,281.723C466.275,281.723 461.617,280.542 458.787,278.18C455.958,275.817 454.543,271.913 454.543,266.468L454.543,236.359L460.029,236.359Z" style="fill:rgb(98,84,79);"/>
        </g>
        <g transform="matrix(0.16829,0,0,0.16829,102.284,14.8143)">
            <path d="M567.062,280.562L567.062,241.444L548.484,241.444L548.484,236.359L591.206,236.359L591.206,241.444L572.588,241.444L572.588,280.562L567.062,280.562Z" style="fill:rgb(98,84,79);"/>
        </g>
        <g transform="matrix(0.16829,0,0,0.16829,102.284,14.8143)">
            <path d="M658.921,280.562L658.921,258.42L639.022,236.359L645.909,236.359L661.724,253.816L677.459,236.359L684.426,236.359L664.407,258.5L664.407,280.562L658.921,280.562Z" style="fill:rgb(98,84,79);"/>
        </g>
    </g>
</svg>
