<?xml version="1.0" encoding="UTF-8" standalone="no"?>
<!DOCTYPE svg PUBLIC "-//W3C//DTD SVG 1.1//EN" "http://www.w3.org/Graphics/SVG/1.1/DTD/svg11.dtd">
<svg width="100%" height="100%" viewBox="0 0 402 402" version="1.1" xmlns="http://www.w3.org/2000/svg" xmlns:xlink="http://www.w3.org/1999/xlink" xml:space="preserve" xmlns:serif="http://www.serif.com/" style="fill-rule:evenodd;clip-rule:evenodd;stroke-linejoin:round;stroke-miterlimit:2;">
    <g transform="matrix(1,0,0,1,-16,0)">
        <rect x="16" y="0" width="402" height="402" style="fill:rgb(0,0,255);"/>
    </g>
    <g transform="matrix(2.64258,0,0,2.74273,-1977.7,-2434.2)">
        <path id="s" d="M769.332,983.839L808.785,980.128C810.412,984.815 812.691,988.168 815.621,990.187C818.55,992.205 822.457,993.214 827.34,993.214C832.678,993.214 836.812,992.076 839.742,989.8C842.021,988.111 843.16,985.998 843.16,983.463C843.16,980.603 841.662,978.392 838.668,976.832C836.519,975.727 830.823,974.362 821.578,972.737C807.776,970.331 798.189,968.103 792.818,966.055C787.447,964.006 782.922,960.543 779.244,955.665C775.565,950.787 773.726,945.226 773.726,938.983C773.726,932.153 775.712,926.266 779.683,921.324C783.655,916.381 789.123,912.69 796.09,910.252C803.056,907.812 812.398,906.593 824.117,906.593C836.487,906.593 845.618,907.537 851.509,909.425C857.401,911.313 862.317,914.242 866.256,918.214C870.194,922.185 873.466,927.556 876.07,934.327L838.375,938.038C837.398,934.718 835.771,932.276 833.492,930.714C830.367,928.631 826.591,927.589 822.164,927.589C817.672,927.589 814.4,928.385 812.349,929.978C810.299,931.57 809.273,933.504 809.273,935.78C809.273,938.315 810.575,940.232 813.179,941.532C815.784,942.832 821.448,944.003 830.172,945.043C843.388,946.539 853.218,948.62 859.664,951.287C866.109,953.953 871.041,957.758 874.459,962.701C877.877,967.644 879.586,973.074 879.586,978.993C879.586,984.976 877.779,990.797 874.166,996.456C870.552,1002.11 864.856,1006.62 857.076,1009.97C849.296,1013.32 838.7,1014.99 825.289,1014.99C806.343,1014.99 792.851,1012.29 784.81,1006.89C776.77,1001.48 771.61,993.8 769.332,983.839Z" style="fill:white;fill-rule:nonzero;"/>
    </g>
</svg>
