<?xml version="1.0" encoding="UTF-8" standalone="no"?>
<!DOCTYPE svg PUBLIC "-//W3C//DTD SVG 1.1//EN" "http://www.w3.org/Graphics/SVG/1.1/DTD/svg11.dtd">
<svg width="100%" height="100%" viewBox="0 0 402 402" version="1.1" xmlns="http://www.w3.org/2000/svg" xmlns:xlink="http://www.w3.org/1999/xlink" xml:space="preserve" xmlns:serif="http://www.serif.com/" style="fill-rule:evenodd;clip-rule:evenodd;stroke-linejoin:round;stroke-miterlimit:2;">
    <g transform="matrix(1,0,0,1,-16,0)">
        <rect x="16" y="0" width="402" height="402" style="fill:rgb(0,0,255);"/>
    </g>
    <g id="e" transform="matrix(2.64258,0,0,2.74273,-6810.6,-2434.2)">
        <path d="M2713.38,970.655L2633.69,970.655C2634.4,977.035 2636.13,981.788 2638.86,984.913C2642.7,989.405 2647.72,991.651 2653.9,991.651C2657.81,991.651 2661.52,990.675 2665.03,988.722C2667.18,987.485 2669.49,985.304 2671.97,982.179L2711.13,985.792C2705.14,996.209 2697.91,1003.68 2689.45,1008.2C2680.99,1012.73 2668.84,1014.99 2653.02,1014.99C2639.29,1014.99 2628.48,1013.05 2620.6,1009.18C2612.72,1005.31 2606.2,999.155 2601.02,990.724C2595.85,982.293 2593.26,972.381 2593.26,960.987C2593.26,944.776 2598.45,931.658 2608.83,921.632C2619.22,911.606 2633.56,906.593 2651.85,906.593C2666.7,906.593 2678.41,908.839 2687.01,913.331C2695.6,917.823 2702.14,924.334 2706.64,932.862C2711.13,941.391 2713.38,952.491 2713.38,966.163L2713.38,970.655ZM2672.95,951.612C2672.16,943.93 2670.1,938.429 2666.74,935.108C2663.39,931.788 2658.98,930.128 2653.51,930.128C2647.2,930.128 2642.15,932.634 2638.38,937.647C2635.97,940.772 2634.44,945.427 2633.78,951.612L2672.95,951.612Z" style="fill:white;fill-rule:nonzero;"/>
    </g>
</svg>
