<?xml version="1.0" encoding="UTF-8" standalone="no"?>
<!DOCTYPE svg PUBLIC "-//W3C//DTD SVG 1.1//EN" "http://www.w3.org/Graphics/SVG/1.1/DTD/svg11.dtd">
<svg width="100%" height="100%" viewBox="0 0 402 402" version="1.1" xmlns="http://www.w3.org/2000/svg" xmlns:xlink="http://www.w3.org/1999/xlink" xml:space="preserve" xmlns:serif="http://www.serif.com/" style="fill-rule:evenodd;clip-rule:evenodd;stroke-linejoin:round;stroke-miterlimit:2;">
    <g transform="matrix(1,0,0,1,-16,0)">
        <rect x="16" y="0" width="402" height="402" style="fill:rgb(0,0,255);"/>
    </g>
    <g id="o" transform="matrix(2.46631,0,0,2.55979,-4963.56,-2258.42)">
        <path d="M2034.47,961.085C2034.47,945.265 2039.81,932.228 2050.48,921.974C2061.16,911.72 2075.58,906.593 2093.75,906.593C2114.51,906.593 2130.2,912.615 2140.82,924.659C2149.35,934.36 2153.61,946.306 2153.61,960.499C2153.61,976.45 2148.32,989.519 2137.74,999.708C2127.16,1009.9 2112.53,1014.99 2093.84,1014.99C2077.18,1014.99 2063.7,1010.76 2053.41,1002.3C2040.78,991.814 2034.47,978.077 2034.47,961.085ZM2074.31,960.987C2074.31,970.232 2076.18,977.068 2079.93,981.495C2083.67,985.922 2088.38,988.136 2094.04,988.136C2099.77,988.136 2104.47,985.955 2108.15,981.593C2111.83,977.231 2113.67,970.232 2113.67,960.597C2113.67,951.612 2111.81,944.923 2108.1,940.528C2104.39,936.134 2099.8,933.937 2094.33,933.937C2088.54,933.937 2083.75,936.166 2079.98,940.626C2076.2,945.086 2074.31,951.873 2074.31,960.987Z" style="fill:white;fill-rule:nonzero;"/>
    </g>
</svg>
