<?xml version="1.0" encoding="UTF-8" standalone="no"?>
<!DOCTYPE svg PUBLIC "-//W3C//DTD SVG 1.1//EN" "http://www.w3.org/Graphics/SVG/1.1/DTD/svg11.dtd">
<svg width="100%" height="100%" viewBox="0 0 402 402" version="1.1" xmlns="http://www.w3.org/2000/svg" xmlns:xlink="http://www.w3.org/1999/xlink" xml:space="preserve" xmlns:serif="http://www.serif.com/" style="fill-rule:evenodd;clip-rule:evenodd;stroke-linejoin:round;stroke-miterlimit:2;">
    <g transform="matrix(1,0,0,1,-16,0)">
        <rect x="16" y="0" width="402" height="402" style="fill:rgb(0,0,255);"/>
    </g>
    <g id="u" transform="matrix(2.64258,0,0,2.74273,-5684.53,-2437.41)">
        <path d="M2282.03,1012.65L2244.92,1012.65L2244.92,995.851C2239.38,1002.75 2233.8,1007.67 2228.17,1010.6C2222.54,1013.53 2215.62,1014.99 2207.42,1014.99C2196.48,1014.99 2187.9,1011.72 2181.68,1005.18C2175.47,998.634 2172.36,988.559 2172.36,974.952L2172.36,908.937L2212.3,908.937L2212.3,965.968C2212.3,972.478 2213.51,977.101 2215.91,979.835C2218.32,982.569 2221.71,983.937 2226.07,983.937C2230.82,983.937 2234.71,982.114 2237.74,978.468C2240.77,974.822 2242.28,968.279 2242.28,958.839L2242.28,908.937L2282.03,908.937L2282.03,1012.65Z" style="fill:white;fill-rule:nonzero;"/>
    </g>
</svg>
