<?xml version="1.0" encoding="UTF-8" standalone="no"?>
<!DOCTYPE svg PUBLIC "-//W3C//DTD SVG 1.1//EN" "http://www.w3.org/Graphics/SVG/1.1/DTD/svg11.dtd">
<svg width="100%" height="100%" viewBox="0 0 103 20" version="1.1" xmlns="http://www.w3.org/2000/svg" xmlns:xlink="http://www.w3.org/1999/xlink" xml:space="preserve" xmlns:serif="http://www.serif.com/" style="fill-rule:evenodd;clip-rule:evenodd;stroke-linejoin:round;stroke-miterlimit:2;">
    <g transform="matrix(1,0,0,1,-943.981,-741.768)">
        <g transform="matrix(0.065759,0,0,0.065759,881.906,692.99)">
            <path d="M1238.78,943.368C1259.18,943.368 1262.78,938.568 1262.78,922.968L1262.78,876.968C1262.78,830.168 1229.58,807.368 1149.58,807.368L1057.18,807.368C981.981,807.368 943.981,830.168 943.981,876.968L943.981,963.768C943.981,1010.17 981.981,1033.37 1057.18,1033.37L1104.78,1033.37C1116.78,1033.37 1119.18,1026.17 1119.18,1012.97C1119.18,999.768 1116.78,992.968 1104.78,992.968L1058.78,992.968C1013.98,992.968 994.781,979.768 994.781,963.768L994.781,943.368L1238.78,943.368ZM994.781,876.968C994.781,860.568 1013.98,847.768 1058.78,847.768L1147.98,847.768C1192.78,847.768 1211.98,858.568 1211.98,876.968L1211.98,903.768L994.781,903.768L994.781,876.968Z" style="fill:white;fill-rule:nonzero;"/>
        </g>
        <g transform="matrix(0.065759,0,0,0.065759,884.906,692.99)">
            <path d="M1317.18,1034.97C1334.38,1034.97 1342.78,1031.37 1342.78,1016.17L1342.78,876.968C1342.78,860.568 1361.98,847.768 1406.78,847.768L1490.78,847.768C1535.58,847.768 1554.78,860.568 1554.78,876.968L1554.78,1016.17C1554.78,1031.37 1563.18,1034.97 1579.98,1034.97C1597.18,1034.97 1605.58,1031.37 1605.58,1016.17L1605.58,876.968C1605.58,830.168 1567.58,807.368 1492.38,807.368L1405.18,807.368C1329.98,807.368 1291.98,830.168 1291.98,876.968L1291.98,1016.17C1291.98,1031.37 1300.38,1034.97 1317.18,1034.97Z" style="fill:white;fill-rule:nonzero;"/>
        </g>
        <g transform="matrix(0.065759,0,0,0.065759,887.906,692.99)">
            <path d="M1641.98,807.368C1629.98,807.368 1627.58,814.568 1627.58,827.768C1627.58,840.968 1629.98,847.768 1641.98,847.768L1664.78,847.768L1664.78,1016.17C1664.78,1031.37 1673.18,1034.97 1689.98,1034.97C1707.18,1034.97 1715.58,1031.37 1715.58,1016.17L1715.58,847.768L1799.98,847.768C1811.98,847.768 1814.38,840.968 1814.38,827.768C1814.38,814.568 1811.98,807.368 1799.98,807.368L1715.58,807.368L1715.58,760.568C1715.58,745.368 1707.18,741.768 1689.98,741.768C1673.18,741.768 1664.78,745.368 1664.78,760.568L1664.78,807.368L1641.98,807.368Z" style="fill:white;fill-rule:nonzero;"/>
        </g>
        <g transform="matrix(0.065759,0,0,0.065759,890.906,692.99)">
            <path d="M2122.38,943.368C2142.78,943.368 2146.38,938.568 2146.38,922.968L2146.38,876.968C2146.38,830.168 2113.18,807.368 2033.18,807.368L1940.78,807.368C1865.58,807.368 1827.58,830.168 1827.58,876.968L1827.58,963.768C1827.58,1010.17 1865.58,1033.37 1940.78,1033.37L1988.38,1033.37C2000.38,1033.37 2002.78,1026.17 2002.78,1012.97C2002.78,999.768 2000.38,992.968 1988.38,992.968L1942.38,992.968C1897.58,992.968 1878.38,979.768 1878.38,963.768L1878.38,943.368L2122.38,943.368ZM1878.38,876.968C1878.38,860.568 1897.58,847.768 1942.38,847.768L2031.58,847.768C2076.38,847.768 2095.58,858.568 2095.58,876.968L2095.58,903.768L1878.38,903.768L1878.38,876.968Z" style="fill:white;fill-rule:nonzero;"/>
        </g>
        <g transform="matrix(0.065759,0,0,0.065759,893.906,692.99)">
            <path d="M2279.18,807.368C2212.38,807.368 2175.58,830.568 2175.58,876.568L2175.58,1016.17C2175.58,1031.37 2183.98,1034.97 2200.78,1034.97C2217.98,1034.97 2226.38,1031.37 2226.38,1016.17L2226.38,876.568C2226.38,858.168 2239.58,847.768 2279.18,847.768L2310.38,847.768C2322.38,847.768 2324.78,840.968 2324.78,827.768C2324.78,814.568 2322.38,807.368 2310.38,807.368L2279.18,807.368Z" style="fill:white;fill-rule:nonzero;"/>
        </g>
    </g>
</svg>
