<?xml version="1.0" encoding="UTF-8" standalone="no"?>
<!DOCTYPE svg PUBLIC "-//W3C//DTD SVG 1.1//EN" "http://www.w3.org/Graphics/SVG/1.1/DTD/svg11.dtd">
<svg width="100%" height="100%" viewBox="0 0 2429 402" version="1.1" xmlns="http://www.w3.org/2000/svg" xmlns:xlink="http://www.w3.org/1999/xlink" xml:space="preserve" xmlns:serif="http://www.serif.com/" style="fill-rule:evenodd;clip-rule:evenodd;stroke-linejoin:round;stroke-miterlimit:2;">
    <g transform="matrix(1,0,0,1,-500,-740)">
        <g transform="matrix(0.84311,0,0,0.347751,357.514,549.433)">
            <rect x="169" y="548" width="2881" height="1156" style="fill:rgb(0,0,255);"/>
        </g>
        <g transform="matrix(1.13162,0,0,1.17451,-290.469,-186.011)">
            <path d="M769.332,983.839L808.785,980.128C810.412,984.815 812.691,988.168 815.621,990.187C818.55,992.205 822.457,993.214 827.34,993.214C832.678,993.214 836.812,992.076 839.742,989.8C842.021,988.111 843.16,985.998 843.16,983.463C843.16,980.603 841.662,978.392 838.668,976.832C836.519,975.727 830.823,974.362 821.578,972.737C807.776,970.331 798.189,968.103 792.818,966.055C787.447,964.006 782.922,960.543 779.244,955.665C775.565,950.787 773.726,945.226 773.726,938.983C773.726,932.153 775.712,926.266 779.683,921.324C783.655,916.381 789.123,912.69 796.09,910.252C803.056,907.812 812.398,906.593 824.117,906.593C836.487,906.593 845.618,907.537 851.509,909.425C857.401,911.313 862.317,914.242 866.256,918.214C870.194,922.185 873.466,927.556 876.07,934.327L838.375,938.038C837.398,934.718 835.771,932.276 833.492,930.714C830.367,928.631 826.591,927.589 822.164,927.589C817.672,927.589 814.4,928.385 812.349,929.978C810.299,931.57 809.273,933.504 809.273,935.78C809.273,938.315 810.575,940.232 813.179,941.532C815.784,942.832 821.448,944.003 830.172,945.043C843.388,946.539 853.218,948.62 859.664,951.287C866.109,953.953 871.041,957.758 874.459,962.701C877.877,967.644 879.586,973.074 879.586,978.993C879.586,984.976 877.779,990.797 874.166,996.456C870.552,1002.11 864.856,1006.62 857.076,1009.97C849.296,1013.32 838.7,1014.99 825.289,1014.99C806.343,1014.99 792.851,1012.29 784.81,1006.89C776.77,1001.48 771.61,993.8 769.332,983.839Z" style="fill:white;fill-rule:nonzero;"/>
            <path d="M946.48,869.483L946.48,908.937L968.355,908.937L968.355,938.038L946.48,938.038L946.48,974.781C946.48,979.199 946.903,982.123 947.75,983.552C949.052,985.761 951.33,986.866 954.586,986.866C957.515,986.866 961.617,986.021 966.89,984.332L969.82,1011.77C959.989,1013.92 950.81,1014.99 942.281,1014.99C932.385,1014.99 925.093,1013.72 920.406,1011.19C915.718,1008.65 912.252,1004.8 910.006,999.63C907.759,994.46 906.636,986.089 906.636,974.516L906.636,938.038L891.988,938.038L891.988,908.937L906.636,908.937L906.636,889.894L946.48,869.483Z" style="fill:white;fill-rule:nonzero;"/>
            <path d="M1023.53,942.53L985.543,938.526C986.975,931.886 989.042,926.661 991.744,922.853C994.446,919.044 998.336,915.74 1003.41,912.94C1007.06,910.922 1012.07,909.36 1018.45,908.253C1024.83,907.146 1031.73,906.593 1039.16,906.593C1051.07,906.593 1060.64,907.26 1067.87,908.595C1075.09,909.929 1081.12,912.713 1085.93,916.944C1089.32,919.874 1091.99,924.024 1093.94,929.395C1095.89,934.767 1096.87,939.894 1096.87,944.776L1096.87,990.577C1096.87,995.46 1097.18,999.285 1097.8,1002.05C1098.42,1004.82 1099.77,1008.35 1101.85,1012.65L1064.55,1012.65C1063.05,1009.98 1062.07,1007.94 1061.62,1006.54C1061.16,1005.14 1060.7,1002.95 1060.25,999.952C1055.04,1004.97 1049.87,1008.55 1044.72,1010.69C1037.69,1013.56 1029.52,1014.99 1020.21,1014.99C1007.84,1014.99 998.45,1012.13 992.037,1006.4C985.624,1000.67 982.418,993.604 982.418,985.206C982.418,977.328 984.729,970.851 989.351,965.772C993.974,960.694 1002.5,956.918 1014.94,954.444C1029.85,951.45 1039.51,949.35 1043.94,948.145C1048.37,946.941 1053.06,945.362 1058,943.409C1058,938.526 1056.99,935.108 1054.98,933.155C1052.96,931.202 1049.41,930.226 1044.33,930.226C1037.82,930.226 1032.94,931.267 1029.68,933.351C1027.14,934.978 1025.09,938.038 1023.53,942.53ZM1058,963.429C1052.54,965.382 1046.84,967.107 1040.91,968.604C1032.84,970.753 1027.73,972.869 1025.58,974.952C1023.37,977.101 1022.26,979.542 1022.26,982.276C1022.26,985.401 1023.35,987.957 1025.53,989.942C1027.71,991.928 1030.92,992.921 1035.15,992.921C1039.58,992.921 1043.7,991.847 1047.51,989.698C1051.31,987.55 1054.02,984.929 1055.61,981.837C1057.21,978.744 1058,974.724 1058,969.776L1058,963.429Z" style="fill:white;fill-rule:nonzero;"/>
            <path d="M1109.17,908.937L1151.17,908.937L1172.55,977.979L1192.38,908.937L1231.54,908.937L1190.42,1019.79C1185.74,1032.41 1180.95,1040.94 1176.07,1045.37C1169.17,1051.61 1158.65,1054.74 1144.53,1054.74C1138.8,1054.74 1129.94,1053.96 1117.96,1052.39L1114.84,1024.66C1120.57,1026.48 1126.95,1027.39 1133.98,1027.39C1138.67,1027.39 1142.46,1026.32 1145.36,1024.17C1148.25,1022.02 1150.71,1018.18 1152.73,1012.64L1109.17,908.937Z" style="fill:white;fill-rule:nonzero;"/>
            <path d="M1297.85,908.937L1336.32,908.937L1353.02,974.272L1374.12,908.937L1409.96,908.937L1431.83,974.348L1448.53,908.937L1486.71,908.937L1448.53,1012.65L1413.18,1012.65L1392.18,950.245L1371.87,1012.65L1336.32,1012.65L1297.85,908.937Z" style="fill:white;fill-rule:nonzero;"/>
            <path d="M1501.75,869.483L1541.5,869.483L1541.5,922.218C1546.9,916.619 1552.27,912.615 1557.61,910.206C1562.95,907.797 1569.27,906.593 1576.56,906.593C1587.37,906.593 1595.88,909.881 1602.1,916.456C1608.31,923.032 1611.42,933.123 1611.42,946.729L1611.42,1012.65L1571.48,1012.65L1571.48,955.616C1571.48,949.106 1570.28,944.5 1567.87,941.798C1565.46,939.096 1562.07,937.745 1557.71,937.745C1552.89,937.745 1548.99,939.568 1545.99,943.214C1543,946.86 1541.5,953.403 1541.5,962.843L1541.5,1012.65L1501.75,1012.65L1501.75,869.483Z" style="fill:white;fill-rule:nonzero;"/>
            <path d="M1671.38,942.53L1633.39,938.526C1634.83,931.886 1636.89,926.661 1639.6,922.853C1642.3,919.044 1646.19,915.74 1651.27,912.94C1654.91,910.922 1659.92,909.36 1666.3,908.253C1672.68,907.146 1679.59,906.593 1687.01,906.593C1698.92,906.593 1708.49,907.26 1715.72,908.595C1722.94,909.929 1728.97,912.713 1733.79,916.944C1737.17,919.874 1739.84,924.024 1741.79,929.395C1743.75,934.767 1744.72,939.894 1744.72,944.776L1744.72,990.577C1744.72,995.46 1745.03,999.285 1745.65,1002.05C1746.27,1004.82 1747.62,1008.35 1749.7,1012.65L1712.4,1012.65C1710.9,1009.98 1709.92,1007.94 1709.47,1006.54C1709.01,1005.14 1708.56,1002.95 1708.1,999.952C1702.89,1004.97 1697.72,1008.55 1692.57,1010.69C1685.54,1013.56 1677.37,1014.99 1668.06,1014.99C1655.69,1014.99 1646.3,1012.13 1639.89,1006.4C1633.48,1000.67 1630.27,993.604 1630.27,985.206C1630.27,977.328 1632.58,970.851 1637.2,965.772C1641.83,960.694 1650.35,956.918 1662.79,954.444C1677.7,951.45 1687.37,949.35 1691.79,948.145C1696.22,946.941 1700.91,945.362 1705.86,943.409C1705.86,938.526 1704.85,935.108 1702.83,933.155C1700.81,931.202 1697.26,930.226 1692.18,930.226C1685.67,930.226 1680.79,931.267 1677.54,933.351C1675,934.978 1672.94,938.038 1671.38,942.53ZM1705.86,963.429C1700.39,965.382 1694.69,967.107 1688.77,968.604C1680.69,970.753 1675.58,972.869 1673.43,974.952C1671.22,977.101 1670.11,979.542 1670.11,982.276C1670.11,985.401 1671.2,987.957 1673.38,989.942C1675.57,991.928 1678.77,992.921 1683,992.921C1687.43,992.921 1691.55,991.847 1695.36,989.698C1699.17,987.55 1701.87,984.929 1703.46,981.837C1705.06,978.744 1705.86,974.724 1705.86,969.776L1705.86,963.429Z" style="fill:white;fill-rule:nonzero;"/>
            <path d="M1813.08,869.483L1813.08,908.937L1834.96,908.937L1834.96,938.038L1813.08,938.038L1813.08,974.781C1813.08,979.199 1813.51,982.123 1814.35,983.552C1815.65,985.761 1817.93,986.866 1821.19,986.866C1824.12,986.866 1828.22,986.021 1833.49,984.332L1836.42,1011.77C1826.59,1013.92 1817.41,1014.99 1808.88,1014.99C1798.99,1014.99 1791.69,1013.72 1787.01,1011.19C1782.32,1008.65 1778.85,1004.8 1776.61,999.63C1774.36,994.46 1773.24,986.089 1773.24,974.516L1773.24,938.038L1758.59,938.038L1758.59,908.937L1773.24,908.937L1773.24,889.894L1813.08,869.483Z" style="fill:white;fill-rule:nonzero;"/>
            <path d="M1909.08,908.937L1951.07,908.937L1972.46,977.979L1992.28,908.937L2031.44,908.937L1990.33,1019.79C1985.64,1032.41 1980.86,1040.94 1975.97,1045.37C1969.07,1051.61 1958.56,1054.74 1944.43,1054.74C1938.7,1054.74 1929.85,1053.96 1917.87,1052.39L1914.74,1024.66C1920.47,1026.48 1926.85,1027.39 1933.88,1027.39C1938.57,1027.39 1942.36,1026.32 1945.26,1024.17C1948.16,1022.02 1950.61,1018.18 1952.63,1012.64L1909.08,908.937Z" style="fill:white;fill-rule:nonzero;"/>
            <path d="M2034.47,961.085C2034.47,945.265 2039.81,932.228 2050.48,921.974C2061.16,911.72 2075.58,906.593 2093.75,906.593C2114.51,906.593 2130.2,912.615 2140.82,924.659C2149.35,934.36 2153.61,946.306 2153.61,960.499C2153.61,976.45 2148.32,989.519 2137.74,999.708C2127.16,1009.9 2112.53,1014.99 2093.84,1014.99C2077.18,1014.99 2063.7,1010.76 2053.41,1002.3C2040.78,991.814 2034.47,978.077 2034.47,961.085ZM2074.31,960.987C2074.31,970.232 2076.18,977.068 2079.93,981.495C2083.67,985.922 2088.38,988.136 2094.04,988.136C2099.77,988.136 2104.47,985.955 2108.15,981.593C2111.83,977.231 2113.67,970.232 2113.67,960.597C2113.67,951.612 2111.81,944.923 2108.1,940.528C2104.39,936.134 2099.8,933.937 2094.33,933.937C2088.54,933.937 2083.75,936.166 2079.98,940.626C2076.2,945.086 2074.31,951.873 2074.31,960.987Z" style="fill:white;fill-rule:nonzero;"/>
            <path d="M2282.03,1012.65L2244.92,1012.65L2244.92,995.851C2239.38,1002.75 2233.8,1007.67 2228.17,1010.6C2222.54,1013.53 2215.62,1014.99 2207.42,1014.99C2196.48,1014.99 2187.9,1011.72 2181.68,1005.18C2175.47,998.634 2172.36,988.559 2172.36,974.952L2172.36,908.937L2212.3,908.937L2212.3,965.968C2212.3,972.478 2213.51,977.101 2215.91,979.835C2218.32,982.569 2221.71,983.937 2226.07,983.937C2230.82,983.937 2234.71,982.114 2237.74,978.468C2240.77,974.822 2242.28,968.279 2242.28,958.839L2242.28,908.937L2282.03,908.937L2282.03,1012.65Z" style="fill:white;fill-rule:nonzero;"/>
            <path d="M2409.08,942.53L2371.09,938.526C2372.52,931.886 2374.59,926.661 2377.29,922.853C2379.99,919.044 2383.88,915.74 2388.96,912.94C2392.61,910.922 2397.62,909.36 2404,908.253C2410.38,907.146 2417.28,906.593 2424.7,906.593C2436.62,906.593 2446.19,907.26 2453.41,908.595C2460.64,909.929 2466.66,912.713 2471.48,916.944C2474.87,919.874 2477.53,924.024 2479.49,929.395C2481.44,934.767 2482.42,939.894 2482.42,944.776L2482.42,990.577C2482.42,995.46 2482.73,999.285 2483.35,1002.05C2483.96,1004.82 2485.32,1008.35 2487.4,1012.65L2450.09,1012.65C2448.6,1009.98 2447.62,1007.94 2447.16,1006.54C2446.71,1005.14 2446.25,1002.95 2445.8,999.952C2440.59,1004.97 2435.41,1008.55 2430.27,1010.69C2423.24,1013.56 2415.07,1014.99 2405.76,1014.99C2393.39,1014.99 2384,1012.13 2377.58,1006.4C2371.17,1000.67 2367.97,993.604 2367.97,985.206C2367.97,977.328 2370.28,970.851 2374.9,965.772C2379.52,960.694 2388.05,956.918 2400.48,954.444C2415.39,951.45 2425.06,949.35 2429.49,948.145C2433.91,946.941 2438.6,945.362 2443.55,943.409C2443.55,938.526 2442.54,935.108 2440.52,933.155C2438.51,931.202 2434.96,930.226 2429.88,930.226C2423.37,930.226 2418.49,931.267 2415.23,933.351C2412.69,934.978 2410.64,938.038 2409.08,942.53ZM2443.55,963.429C2438.08,965.382 2432.39,967.107 2426.46,968.604C2418.39,970.753 2413.28,972.869 2411.13,974.952C2408.91,977.101 2407.81,979.542 2407.81,982.276C2407.81,985.401 2408.9,987.957 2411.08,989.942C2413.26,991.928 2416.47,992.921 2420.7,992.921C2425.13,992.921 2429.24,991.847 2433.05,989.698C2436.86,987.55 2439.56,984.929 2441.16,981.837C2442.75,978.744 2443.55,974.724 2443.55,969.776L2443.55,963.429Z" style="fill:white;fill-rule:nonzero;"/>
            <path d="M2506.64,908.937L2543.84,908.937L2543.84,925.929C2547.42,918.572 2551.12,913.51 2554.93,910.743C2558.74,907.976 2563.44,906.593 2569.04,906.593C2574.9,906.593 2581.31,908.416 2588.28,912.062L2575.97,940.382C2571.28,938.429 2567.57,937.452 2564.84,937.452C2559.63,937.452 2555.6,939.601 2552.73,943.897C2548.63,949.952 2546.58,961.28 2546.58,977.882L2546.58,1012.65L2506.64,1012.65L2506.64,908.937Z" style="fill:white;fill-rule:nonzero;"/>
            <path d="M2713.38,970.655L2633.69,970.655C2634.4,977.035 2636.13,981.788 2638.86,984.913C2642.7,989.405 2647.72,991.651 2653.9,991.651C2657.81,991.651 2661.52,990.675 2665.03,988.722C2667.18,987.485 2669.49,985.304 2671.97,982.179L2711.13,985.792C2705.14,996.209 2697.91,1003.68 2689.45,1008.2C2680.99,1012.73 2668.84,1014.99 2653.02,1014.99C2639.29,1014.99 2628.48,1013.05 2620.6,1009.18C2612.72,1005.31 2606.2,999.155 2601.02,990.724C2595.85,982.293 2593.26,972.381 2593.26,960.987C2593.26,944.776 2598.45,931.658 2608.83,921.632C2619.22,911.606 2633.56,906.593 2651.85,906.593C2666.7,906.593 2678.41,908.839 2687.01,913.331C2695.6,917.823 2702.14,924.334 2706.64,932.862C2711.13,941.391 2713.38,952.491 2713.38,966.163L2713.38,970.655ZM2672.95,951.612C2672.16,943.93 2670.1,938.429 2666.74,935.108C2663.39,931.788 2658.98,930.128 2653.51,930.128C2647.2,930.128 2642.15,932.634 2638.38,937.647C2635.97,940.772 2634.44,945.427 2633.78,951.612L2672.95,951.612Z" style="fill:white;fill-rule:nonzero;"/>
            <rect x="2731.73" y="972.804" width="42.48" height="39.844" style="fill:white;"/>
        </g>
    </g>
</svg>
